# AST/ASF file generated using VICON BodyLanguage
# -----------------------------------------------
:version 1.10
:name VICON
:units
  mass 1.0
  length 0.45
  angle deg
:documentation
   .ast/.asf automatically generated from VICON data using
   VICON BodyBuilder and BodyLanguage model FoxedUp or BRILLIANT.MOD
:root
   order TX TY TZ RX RY RZ
   axis XYZ
   position 0 0 0  
   orientation 0 0 0 
:bonedata
  begin
     id 1 
     name lhipjoint
     direction 0.560651 -0.75055 0.34978 
     length 2.44936 
     axis 0 0 0  XYZ
  end
  begin
     id 2 
     name lfemur
     direction 0.34202 -0.939693 0  
     length 7.42139  
     axis 0 0 20  XYZ
    dof rx ry rz
    limits (-160.0 20.0)
           (-70.0 70.0)
           (-60.0 70.0)
  end
  begin
     id 3 
     name ltibia
     direction 0.34202 -0.939693 0   
     length 7.75674   
     axis 0 0 20   XYZ
    dof rx
    limits (-10.0 170.0)
  end
  begin
     id 4 
     name lfoot
     direction 0.0925879 -0.254383 0.962661   
     length 2.38688   
     axis -90 7.62852e-016 20   XYZ
    dof rx rz
    limits (-45.0 90.0)
           (-70.0 20.0)
  end
  begin
     id 5 
     name ltoes
     direction 1.53567e-011 -4.21973e-011 1   
     length 1.19228   
     axis -90 7.62852e-016 20   XYZ
    dof rx
    limits (-90.0 20.0)
  end
  begin
     id 6 
     name rhipjoint
     direction -0.540087 -0.762838 0.355506   
     length 2.4099  
     axis 0 0 0  XYZ 
  end
  begin
     id 7 
     name rfemur
     direction -0.34202 -0.939693 0   
     length 7.70794   
     axis 0 0 -20   XYZ
    dof rx ry rz
    limits (-160.0 20.0)
           (-70.0 70.0)
           (-70.0 60.0)
  end
  begin
     id 8 
     name rtibia
     direction -0.34202 -0.939693 0   
     length 7.66106   
     axis 0 0 -20   XYZ
    dof rx
    limits (-10.0 170.0)
 end
 begin
     id 9 
     name rfoot
     direction -0.0830975 -0.228308 0.970036   
     length 2.4989  
     axis -90 -7.62852e-016 -20   XYZ
    dof rx rz
    limits (-45.0 90.0)
           (-20.0 70.0)
  end
  begin
     id 10 
     name rtoes
     direction -1.53517e-011 -4.21842e-011 1   
     length 1.2498   
     axis -90 -7.62852e-016 -20   XYZ
    dof rx
    limits (-90.0 20.0)
  end
  begin
     id 11 
     name lowerback
     direction 0.0266356 0.99402 -0.105896   
     length 2.1545   
     axis 0 0 0   XYZ
    dof rx ry rz
    limits (-20.0 45.0)
           (-30.0 30.0)
           (-30.0 30.0)
  end
  begin
     id 12 
     name upperback
     direction 0.0130547 0.999192 0.0380027   
     length 2.1434   
     axis 0 0 0   XYZ
    dof rx ry rz
    limits (-20.0 45.0)
           (-30.0 30.0)
           (-30.0 30.0)
  end
  begin
     id 13 
     name thorax
     direction 0.000590299 0.996288 0.0860764   
     length 2.19049   
     axis 0 0 0   XYZ
    dof rx ry rz
    limits (-20.0 45.0)
           (-30.0 30.0)
           (-30.0 30.0)
  end
  begin
     id 14 
     name lowerneck
     direction -0.0432125 0.978219 0.203028   
     length 1.62441   
     axis 0 0 0   XYZ
    dof rx ry rz
    limits (-20.0 45.0)
           (-30.0 30.0)
           (-30.0 30.0)
  end
  begin
     id 15 
     name upperneck
     direction -0.0192309 0.991699 -0.127138   
     length 1.66666   
     axis 0 0 0   XYZ
    dof rx ry rz
    limits (-20.0 45.0)
           (-30.0 30.0)
           (-30.0 30.0)
  end
  begin
     id 16
     name head
     direction -0.00434499 0.997882 -0.0649107  
     length 1.67142  
     axis 0 0 0   XYZ
    dof rx ry rz
    limits (-20.0 45.0)
           (-30.0 30.0)
           (-30.0 30.0)
  end
  begin
     id 17 
     name lclavicle
     direction 0.970351 0.240904 -0.0196058  
     length 4.04862  
     axis 0 0 0   XYZ
    dof ry rz
    limits (-20.0 10.0)
           (0.0 20.0)
  end
  begin
     id 18 
     name lhumerus
     direction 1 -4.4896e-011 -1.40911e-018   
     length 5.58345   
     axis 180 -30 -90   XYZ
    dof rx ry rz
    limits (-60.0 90.0)
           (-90.0 90.0)
           (-90.0 90.0)
  end
  begin
     id 19
     name lradius
     direction 1 -4.48968e-011 5.88912e-028   
     length 3.71087   
     axis 180 -30 -90   XYZ
    dof rx
    limits (-10.0 170.0)
  end
  begin
     id 20
     name lwrist
     direction 1 -4.48955e-011 -8.83775e-028   
     length 1.85544   
     axis 5.52448e-016 90 90   XYZ
    dof ry
    limits (-180.0 0.0)
 end
  begin
     id 21 
     name lhand
     direction 1 -4.49035e-011 -1.76755e-027   
     length 0.562322   
     axis 1.12785e-015 90 90   XYZ
    dof rx rz
    limits (-90.0 90.0)
           (-45.0 45.0)
  end
  begin
     id 22 
     name lfingers
     direction 1 -4.48824e-011 -3.5351e-027   
     length 0.453359   
     axis 2.2557e-015 90 90   XYZ
    dof rx
    limits (0.0 90.0)
  end
  begin
     id 23
     name lthumb
     direction 0.707107 -6.34888e-011 0.707107   
     length 0.650935   
     axis -90 45 2.85299e-015   XYZ
    dof rx rz
    limits (-45.0 45.0)
           (-45.0 45.0)
  end
  begin
     id 24 
     name rclavicle
     direction -0.96165 0.268562 -0.0557131   
     length 4.05446  
     axis 0 0 0   XYZ 
    dof ry rz
    limits (-10.0 20.0)
           (-20.0 0.0)
  end
  begin
     id 25 
     name rhumerus
     direction -1 -4.48957e-011 -3.36329e-027  
     length 5.20357   
     axis 180 30 90   XYZ
    dof rx ry rz
    limits (-90.0 60.0)
           (-90.0 90.0)
           (-90.0 90.0)
  end
  begin
     id 26 
     name rradius
     direction -1 -4.48974e-011 4.51441e-027   
     length 3.64937   
     axis 180 30 90   XYZ
    dof rx
    limits (-10.0 170.0)
  end
  begin
     id 27 
     name rwrist
     direction -1 -4.4896e-011 -8.83775e-028   
     length 1.82468   
     axis 5.52448e-016 -90 -90   XYZ
    dof ry
    limits (-180.0 0.0)
  end
  begin
     id 28
     name rhand
     direction -1 -4.48996e-011 -1.76755e-027   
     length 0.617996   
     axis 1.12785e-015 -90 -90   XYZ
    dof rx rz
    limits (-90.0 90.0)
           (-45.0 45.0)
  end
  begin
     id 29
     name rfingers
     direction -1 -4.48957e-011 -3.5351e-027   
     length 0.498244   
     axis 2.2557e-015 -90 -90   XYZ
    dof rx
    limits (0.0 90.0)
  end
  begin
     id 30
     name rthumb
     direction -0.707107 -6.34931e-011 0.707107   
     length 0.715382   
     axis -90 -45 -2.85299e-015   XYZ
    dof rx rz
    limits (-45.0 45.0)
           (-45.0 45.0)
  end
:hierarchy
  begin
    root lhipjoint rhipjoint lowerback
    lhipjoint lfemur
    lfemur ltibia
    ltibia lfoot
    lfoot ltoes
    rhipjoint rfemur
    rfemur rtibia
    rtibia rfoot
    rfoot rtoes
    lowerback upperback
    upperback thorax
    thorax lowerneck lclavicle rclavicle
    lowerneck upperneck
    upperneck head
    lclavicle lhumerus
    lhumerus lradius
    lradius lwrist
    lwrist lhand lthumb
    lhand lfingers
    rclavicle rhumerus
    rhumerus rradius
    rradius rwrist
    rwrist rhand rthumb
    rhand rfingers
  end

#!OML:ASF H:\ManfredETheater\Project 1\Capture day 2\Session 1\Male1.ASF
:FULLY-SPECIFIED
:DEGREES
16
root 14.6011 15.5647 32.4261 -165.592 -30.0791 -169.468
lowerback 33.9852 0.970956 9.08888
upperback 7.67555 2.77583 2.79954
thorax -8.35318 0.412466 -2.73062
lowerneck -17.6063 -0.619797 -1.44497
upperneck 10.5716 0.0396901 -4.13917
head 6.08332 -0.42128 -1.09263
rclavicle -4.57205e-014 -5.10877e-014
rhumerus -27.0054 9.00922 -84.3584
rradius 84.3964
rwrist -3.24471
rhand -26.8451 1.04289
rfingers 7.12502
rthumb -0.270528 -28.9367
lclavicle -4.57205e-014 -5.10877e-014
lhumerus -36.2071 0.0789944 84.2689
lradius 57.2974
lwrist 1.96028
lhand -28.4089 -1.5087
lfingers 7.12502
lthumb -1.78088 28.4636
rfemur -48.9532 -14.6806 31.246
rtibia 97.5189
rfoot -20.2308 -7.41773
rtoes -14.261
lfemur -72.0958 0.921557 -12.0685
ltibia 72.2452
lfoot -12.2743 0.75108
ltoes -1.53317
17
root 14.4672 15.4931 32.1632 -164.808 -30.8178 -169.892
lowerback 35.0876 0.716576 9.20423
upperback 7.7047 2.54255 2.77156
thorax -8.62657 0.263638 -2.69275
lowerneck -17.8298 -0.670551 -1.46332
upperneck 10.2429 -0.0185378 -4.2801
head 6.01432 -0.461404 -1.14042
rclavicle 4.57205e-014 4.27387e-014
rhumerus -25.4709 8.58556 -83.7018
rradius 83.8664
rwrist -3.29735
rhand -27.5869 0.827155
rfingers 7.12502
rthumb -0.986974 -29.1503
lclavicle 4.57205e-014 4.27387e-014
lhumerus -33.2116 -0.714222 84.458
lradius 57.1793
lwrist 1.988
lhand -28.7446 -1.29221
lfingers 7.12502
lthumb -2.10502 28.6772
rfemur -53.3973 -14.7645 31.6675
rtibia 98.3111
rfoot -21.5852 -7.5317
rtoes -15.8198
lfemur -72.7011 0.335514 -12.3004
ltibia 73.9577
lfoot -13.8096 0.550304
ltoes -1.28536
18
root 14.3363 15.4272 31.8961 -164.095 -31.5539 -170.235
lowerback 36.1621 0.485123 9.36758
upperback 7.82728 2.34388 2.79884
thorax -8.88632 0.128843 -2.66736
lowerneck -18.0222 -0.717075 -1.38236
upperneck 9.84622 -0.0934724 -4.47919
head 5.91803 -0.509361 -1.22375
rclavicle -1.78906e-014 1.45113e-014
rhumerus -23.8055 8.20332 -83.0069
rradius 83.4113
rwrist -3.22634
rhand -28.4644 0.655606
rfingers 7.12502
rthumb -1.83443 -29.3163
lclavicle -1.78906e-014 1.45113e-014
lhumerus -30.1041 -1.52254 84.5229
lradius 57.0785
lwrist 2.08655
lhand -29.1256 -1.12033
lfingers 7.12502
lthumb -2.47298 28.8451
rfemur -57.674 -14.5946 32.0779
rtibia 98.583
rfoot -22.758 -7.69136
rtoes -17.3137
lfemur -73.1705 -0.157224 -12.4273
ltibia 75.5641
lfoot -15.3124 0.20375
ltoes -1.14147
19
root 14.2087 15.3722 31.6213 -163.496 -32.2908 -170.524
lowerback 37.3363 0.271494 9.55355
upperback 7.97088 2.17952 2.85657
thorax -9.1417 0.00452351 -2.62696
lowerneck -18.2259 -0.765 -1.27747
upperneck 9.44256 -0.179689 -4.67095
head 5.8208 -0.561717 -1.30963
rclavicle -1.98785e-014 -2.22639e-014
rhumerus -22.029 7.86002 -82.2891
rradius 83.0762
rwrist -3.03716
rhand -29.3857 0.53633
rfingers 7.12502
rthumb -2.72419 -29.426
lclavicle -1.98785e-014 -2.22639e-014
lhumerus -26.8855 -2.30148 84.4597
lradius 56.978
lwrist 2.21065
lhand -29.5338 -1.04348
lfingers 7.12502
lthumb -2.86722 28.917
rfemur -61.6221 -14.2242 32.3961
rtibia 98.3132
rfoot -23.7658 -7.87957
rtoes -18.5217
lfemur -73.3823 -0.551261 -12.4846
ltibia 77.0091
lfoot -16.823 -0.271042
ltoes -1.05926
20
root 14.0826 15.3291 31.3396 -162.982 -32.9682 -170.743
lowerback 38.5858 0.0946351 9.74827
upperback 8.12595 2.06837 2.93059
thorax -9.39007 -0.0994286 -2.58767
lowerneck -18.442 -0.808259 -1.16287
upperneck 9.0366 -0.266018 -4.85
head 5.72452 -0.613399 -1.393
rclavicle 3.1408e-014 -8.70677e-014
rhumerus -20.1594 7.55942 -81.5588
rradius 82.8984
rwrist -2.78031
rhand -30.2194 0.471291
rfingers 7.12502
rthumb -3.52931 -29.4792
lclavicle 3.1408e-014 -8.70677e-014
lhumerus -23.5705 -3.00679 84.2735
lradius 56.883
lwrist 2.32218
lhand -29.9355 -1.01531
lfingers 7.12502
lthumb -3.25521 28.9396
rfemur -65.2411 -13.633 32.5813
rtibia 97.5167
rfoot -24.5923 -8.06461
rtoes -19.5198
lfemur -73.345 -0.809655 -12.4798
ltibia 78.2567
lfoot -18.3335 -0.816131
ltoes -1.00079
21
root 13.9575 15.2985 31.0511 -162.507 -33.5959 -170.908
lowerback 39.8663 -0.0538939 9.94718
upperback 8.28147 1.9988 3.0109
thorax -9.62766 -0.186104 -2.55502
lowerneck -18.6623 -0.843697 -1.04263
upperneck 8.62791 -0.347671 -5.01324
head 5.62784 -0.661884 -1.47166
rclavicle 2.90226e-014 7.4743e-014
rhumerus -18.2151 7.30766 -80.8338
rradius 82.9074
rwrist -2.54147
rhand -30.8775 0.467561
rfingers 7.12502
rthumb -4.1648 -29.4715
lclavicle 2.90226e-014 7.4743e-014
lhumerus -20.1711 -3.59352 83.9779
lradius 56.7854
lwrist 2.39999
lhand -30.3103 -1.02392
lfingers 7.12502
lthumb -3.61711 28.9251
rfemur -68.5383 -12.8967 32.6155
rtibia 96.2187
rfoot -25.2431 -8.18648
rtoes -20.2843
lfemur -73.1005 -0.943121 -12.4324
ltibia 79.2835
lfoot -19.824 -1.41358
ltoes -0.892747
